<?xml version="1.0" encoding="UTF-8" standalone="no"?>
<!-- Created with Inkscape (http://www.inkscape.org/) -->

<svg
   xmlns:dc="http://purl.org/dc/elements/1.1/"
   xmlns:cc="http://creativecommons.org/ns#"
   xmlns:rdf="http://www.w3.org/1999/02/22-rdf-syntax-ns#"
   xmlns:svg="http://www.w3.org/2000/svg"
   xmlns="http://www.w3.org/2000/svg"
   xmlns:sodipodi="http://sodipodi.sourceforge.net/DTD/sodipodi-0.dtd"
   xmlns:inkscape="http://www.inkscape.org/namespaces/inkscape"
   width="103.90032mm"
   height="64.370865mm"
   viewBox="0 0 368.15054 228.08574"
   id="svg2"
   version="1.1"
   inkscape:version="0.91 r13725"
   sodipodi:docname="logo.svg">
  <defs
     id="defs4" />
  <sodipodi:namedview
     id="base"
     pagecolor="#ffffff"
     bordercolor="#666666"
     borderopacity="1.0"
     inkscape:pageopacity="0.0"
     inkscape:pageshadow="2"
     inkscape:zoom="1.6914063"
     inkscape:cx="260.06307"
     inkscape:cy="75.634954"
     inkscape:document-units="px"
     inkscape:current-layer="layer1"
     showgrid="true"
     inkscape:window-width="1920"
     inkscape:window-height="1027"
     inkscape:window-x="-8"
     inkscape:window-y="-8"
     inkscape:window-maximized="1"
     fit-margin-top="0"
     fit-margin-left="0"
     fit-margin-right="0"
     fit-margin-bottom="0">
    <inkscape:grid
       type="xygrid"
       id="grid4177"
       originx="1.6777337e-008"
       originy="-61.842558" />
  </sodipodi:namedview>
  <metadata
     id="metadata7">
    <rdf:RDF>
      <cc:Work
         rdf:about="">
        <dc:format>image/svg+xml</dc:format>
        <dc:type
           rdf:resource="http://purl.org/dc/dcmitype/StillImage" />
        <dc:title></dc:title>
      </cc:Work>
    </rdf:RDF>
  </metadata>
  <g
     inkscape:label="Layer 1"
     inkscape:groupmode="layer"
     id="layer1"
     transform="translate(-2.4170952,-2.4465075)">
    <path
       style="color:#000000;clip-rule:nonzero;display:inline;overflow:visible;visibility:visible;opacity:1;isolation:auto;mix-blend-mode:normal;color-interpolation:sRGB;color-interpolation-filters:linearRGB;solid-color:#000000;solid-opacity:1;fill:#db3939;fill-opacity:1;fill-rule:nonzero;stroke:#db3939;stroke-width:2;stroke-linecap:butt;stroke-linejoin:miter;stroke-miterlimit:4;stroke-dasharray:none;stroke-dashoffset:0;stroke-opacity:1;color-rendering:auto;image-rendering:auto;shape-rendering:auto;text-rendering:auto;enable-background:accumulate"
       d="M 4.2230269,97.957721 C 14.358297,89.933971 112.33257,14.341751 112.33257,14.341751 c 20.48169,-16.1530804 27.76641,-12.7746704 56.483,-0.10558 14.56945,6.01782 197.74332,83.72155 197.74332,83.72155 7.8126,13.513689 -1.05575,17.947869 -8.44605,21.115139 L 163.00891,33.767681 c -25.12702,-9.71297 -27.87198,-8.65721 -40.54107,0 L 18.581327,114.84983 C 13.513697,115.48328 -3.1342796e-6,115.06099 4.2230269,97.957721 Z"
       id="path4136"
       inkscape:connector-curvature="0"
       sodipodi:nodetypes="ccccccccc" />
    <path
       style="color:#000000;clip-rule:nonzero;display:inline;overflow:visible;visibility:visible;opacity:1;isolation:auto;mix-blend-mode:normal;color-interpolation:sRGB;color-interpolation-filters:linearRGB;solid-color:#000000;solid-opacity:1;fill:#db3939;fill-opacity:1;fill-rule:nonzero;stroke:#db3939;stroke-width:1.94776058;stroke-linecap:butt;stroke-linejoin:miter;stroke-miterlimit:4;stroke-dasharray:none;stroke-dashoffset:0;stroke-opacity:1;color-rendering:auto;image-rendering:auto;shape-rendering:auto;text-rendering:auto;enable-background:accumulate"
       d="m 7.0223973,211.50893 355.9944227,-0.0225 -0.002,17.99624 -355.9922327,0.0755 z"
       id="path4138"
       inkscape:connector-curvature="0"
       sodipodi:nodetypes="ccccc" />
    <g
       transform="matrix(0.86717114,0,0,0.80399217,-205.52142,-116.19575)"
       style="font-style:normal;font-weight:normal;font-size:90px;line-height:125%;font-family:sans-serif;text-align:center;letter-spacing:0px;word-spacing:0px;text-anchor:middle;fill:#000000;fill-opacity:1;stroke:none;stroke-width:1px;stroke-linecap:butt;stroke-linejoin:miter;stroke-opacity:1"
       id="flowRoot4140-0">
      <path
         d="m 308.52877,320.51789 28.11628,0 q -0.55814,3.55814 -2.30232,7.60466 l 75.55814,0 0,15.8372 -83.16279,0 q -1.18605,3.55814 -2.93024,5.30233 l 74.3721,0 0,15.76744 q -11.72093,14.65117 -26.3721,22.88372 14.65117,4.11628 36.34884,5.86047 l 0,14.65116 q -37.46511,-3.48837 -60.90698,-11.16279 -24.6279,8.23256 -59.79069,11.16279 l 0,-14.65116 q 22.25581,-2.37209 35.72093,-5.86047 -9.34884,-7.04651 -17.5814,-15.2093 -15.2093,12.83721 -37.46511,21.62791 l 0,-16.39535 q 19.88372,-13.46512 31.04651,-33.97675 l -29.86047,0 0,-15.8372 36.90698,0 q 1.74418,-4.04652 2.30232,-7.60466 z m 86.1628,-29.30232 q -2.3721,5.86046 -5.86047,10.53488 l 17.5814,0 0,22.32558 -25.18605,0 0,-6.48837 -83.7907,0 0,6.48837 -25.18605,0 0,-22.32558 16.95349,0 q -0.55814,-2.93023 -2.30232,-8.16279 -0.62791,-1.18604 -1.18605,-1.74418 l 22.81395,0 q 0.62791,1.11627 1.74419,3.48837 1.18605,1.74418 2.93023,6.4186 l 15.83721,0 q -0.55814,-4.67442 -4.11628,-9.90697 l 22.88372,0 q 0.55814,1.11627 1.74419,3.48837 1.18605,1.74418 3.55814,6.4186 l 12.27907,0 q 0.55814,-1.74418 1.18605,-3.48837 1.18604,-1.18605 2.93023,-7.04651 l 25.18605,0 z m -120.69768,-18.69768 80.86047,0 q 24,0.55814 48,-5.30232 l 0,16.95349 q -22.81396,5.86046 -43.88373,5.30232 l -84.97674,0 0,-16.95349 z m 60.34884,96.62791 q 6.4186,4.67442 13.46511,8.7907 7.60466,-4.11628 16.39535,-12.90698 l -51.55814,0 q -0.55814,0.62791 -1.74418,1.81396 -1.18605,1.74418 -1.74419,2.30232 l 25.18605,0 z"
         style="font-style:normal;font-variant:normal;font-weight:normal;font-stretch:normal;font-size:150px;font-family:'嵐 - 墨夜体';-inkscape-font-specification:'嵐 - 墨夜体';text-align:center;text-anchor:middle;fill:#db3939;fill-opacity:1"
         id="path4180"
         inkscape:connector-curvature="0" />
      <path
         d="m 616.20592,274.26208 0,29.30233 -18.69768,0 0,13.46511 -32.23255,0 q -5.86047,4.67442 -11.72093,8.16279 16.39534,9.41861 16.39534,30.48838 l 0,30.48837 q 0.55814,22.25581 -21.69767,21.69767 l -21.06977,0 0,-16.46511 11.09303,0 q 7.04651,0 6.48837,-6.97675 l 0,-2.37209 q -21.69768,12.90697 -65.65116,21.06977 l 0,-13.46512 q 39.8372,-10.53488 65.65116,-31.60465 0,-0.62791 0,-1.81396 -0.62791,-1.11627 -0.62791,-1.74418 -21.06977,14.09302 -64.39535,21.13953 l 0,-15.27907 q 32.23256,-6.4186 56.7907,-24 0,-0.55814 -0.55814,-0.55814 -0.62791,-0.6279 -1.18605,-0.6279 -18.76744,7.60465 -53.30232,11.72093 l 0,-14.02326 q 31.60465,-5.30232 47.44186,-15.83721 l -31.04651,0 0,-13.46511 -18.76744,0 0,-29.30233 53.30232,0 0,-7.60465 32.23256,0 0,7.60465 51.55814,0 z m -22.25582,72.62791 q 2.93024,25.18604 25.81396,39.83721 l 0,16.39535 Q 572.3222,384.42487 569.9501,346.88999 l 0,-16.95349 22.25582,0 q 10.53488,0.55814 21.69767,-4.74419 l 0,18.76744 q -8.79069,2.93024 -18.2093,2.93024 l -1.74419,0 z m -89.65116,-55.04651 0,8.16279 86.72093,0 0,-8.16279 -86.72093,0 z"
         style="font-style:normal;font-variant:normal;font-weight:normal;font-stretch:normal;font-size:150px;font-family:'嵐 - 墨夜体';-inkscape-font-specification:'嵐 - 墨夜体';text-align:center;text-anchor:middle;fill:#db3939;fill-opacity:1"
         id="path4182"
         inkscape:connector-curvature="0" />
    </g>
  </g>
</svg>
