<?xml version="1.0" encoding="UTF-8" standalone="no"?>
<!-- Created with Inkscape (http://www.inkscape.org/) -->

<svg
   xmlns:dc="http://purl.org/dc/elements/1.1/"
   xmlns:cc="http://creativecommons.org/ns#"
   xmlns:rdf="http://www.w3.org/1999/02/22-rdf-syntax-ns#"
   xmlns:svg="http://www.w3.org/2000/svg"
   xmlns="http://www.w3.org/2000/svg"
   xmlns:sodipodi="http://sodipodi.sourceforge.net/DTD/sodipodi-0.dtd"
   xmlns:inkscape="http://www.inkscape.org/namespaces/inkscape"
   width="99.637199mm"
   height="65.074059mm"
   viewBox="0 0 353.04519 230.57737"
   id="svg2"
   version="1.1"
   inkscape:version="0.91 r13725"
   sodipodi:docname="none.svg">
  <defs
     id="defs4" />
  <sodipodi:namedview
     id="base"
     pagecolor="#ffffff"
     bordercolor="#666666"
     borderopacity="1.0"
     inkscape:pageopacity="0.0"
     inkscape:pageshadow="2"
     inkscape:zoom="1.1839844"
     inkscape:cx="102.19235"
     inkscape:cy="128.10292"
     inkscape:document-units="px"
     inkscape:current-layer="layer1"
     showgrid="false"
     inkscape:window-width="1920"
     inkscape:window-height="1027"
     inkscape:window-x="-8"
     inkscape:window-y="-8"
     inkscape:window-maximized="1"
     fit-margin-top="0"
     fit-margin-left="0"
     fit-margin-right="0"
     fit-margin-bottom="0" />
  <metadata
     id="metadata7">
    <rdf:RDF>
      <cc:Work
         rdf:about="">
        <dc:format>image/svg+xml</dc:format>
        <dc:type
           rdf:resource="http://purl.org/dc/dcmitype/StillImage" />
        <dc:title></dc:title>
      </cc:Work>
    </rdf:RDF>
  </metadata>
  <g
     inkscape:label="Layer 1"
     inkscape:groupmode="layer"
     id="layer1"
     transform="translate(-113.17717,-125.8297)">
    <rect
       style="fill:#d7d8da;fill-opacity:0.94117647;fill-rule:evenodd;stroke:none;stroke-width:1px;stroke-linecap:butt;stroke-linejoin:miter;stroke-opacity:1"
       id="rect4136"
       width="353.0452"
       height="230.57736"
       x="113.17717"
       y="125.8297" />
    <g
       transform="translate(0,10.135269)"
       style="font-style:normal;font-weight:normal;font-size:40px;line-height:125%;font-family:sans-serif;letter-spacing:0px;word-spacing:0px;fill:#ffffff;fill-opacity:1;stroke:none;stroke-width:1px;stroke-linecap:butt;stroke-linejoin:miter;stroke-opacity:1"
       id="flowRoot4138">
      <path
         d="m 202.26912,245.21565 0,-5.27907 8.97675,0 0,-2.13954 -5.46512,0 q -1.37209,-3.32558 -1.74419,-6.46512 0.3721,10.74419 -11.32558,15.62791 l 0,-5.06977 q 2.72093,-3.51162 2.53489,-10.55814 l 0,-24.02325 14.25581,0 0,-7.7907 8.97674,0 0,1.55814 17.5814,0 0,4.67442 -17.5814,0 0,1.55814 20.51163,0 0,8.60465 -7.81395,0 0,-3.32558 -27.13954,0 0,15.83721 5.65117,0 q 0.2093,4.86046 1.55814,8.58139 l 0,-9.18604 7.6279,0 0,12.11628 2.74419,0 0,-12.11628 7.60465,0 0,9.37209 q 0.97675,-2.93023 1.55814,-8 0,-0.5814 0,-0.76744 l 6.25581,0 q -0.58139,6.04651 -2.34883,9.37209 l -5.46512,0 0,2.13954 9.76744,0 0,5.27907 -36.72093,0 z m 2.74419,-25 0,-4.69768 5.65116,0 0,-2.13953 8.39535,0 0,2.13953 10.74419,0 0,4.69768 -10.74419,0 q -0.18605,1.95348 2.34884,1.74418 l 8.39535,0 q 1.76744,0 1.76744,-1.74418 l 0,-0.7907 5.86046,0 0,1.76744 q 0.18605,5.65116 -5.67442,5.46512 l -15.02325,0 q -6.25582,0.18604 -6.06977,-6.04652 l 0,-0.39534 -5.65116,0 z"
         style="font-style:normal;font-variant:normal;font-weight:normal;font-stretch:normal;font-size:50px;font-family:'嵐 - 墨夜体';-inkscape-font-specification:'嵐 - 墨夜体';text-align:center;text-anchor:middle;fill:#ffffff;fill-opacity:1"
         id="path4147"
         inkscape:connector-curvature="0" />
      <path
         d="m 286.26912,213.77379 q -1.34883,14.44186 -5.46511,26.16279 l 9,0 0,5.46511 -33.41861,0 0,-5.46511 7.81396,0 q -3.90698,-10.55814 -5.06977,-26.16279 l 8.60465,0 q 0.58139,14.04651 3.69767,26.16279 l 2.53489,0 q 3.13953,-12.11628 3.72093,-26.16279 l 8.58139,0 z m -39.44186,33.18604 0,-28.30232 q -0.39535,0.18604 -1.16279,0.37209 -1.18605,0.7907 -3.53488,1.37209 l 0,-5.06977 q 5.67442,-4.11627 8.02325,-15.44186 l 8.18605,0 q -1.55814,6.06977 -3.11628,9.97675 l 0,37.09302 -8.39535,0 z m 10.16279,-36.11628 0,-5.86046 11.11628,0 0,-4.69768 9.97675,0 0,4.69768 10.93023,0 0,5.86046 -32.02326,0 z"
         style="font-style:normal;font-variant:normal;font-weight:normal;font-stretch:normal;font-size:50px;font-family:'嵐 - 墨夜体';-inkscape-font-specification:'嵐 - 墨夜体';text-align:center;text-anchor:middle;fill:#ffffff;fill-opacity:1"
         id="path4149"
         inkscape:connector-curvature="0" />
      <path
         d="m 338.40866,240.72727 0,6.04652 q -9,-5.67442 -13.27907,-12.88373 -3.72093,5.65117 -13.88372,12.88373 l 0,-6.44187 q 7.04651,-7.81395 9.18604,-15.44186 2.34884,-7.4186 2.34884,-23.81395 l 9.37209,0 q -0.58139,14.83721 -2.53488,21.86047 2.72093,11.53488 8.7907,17.79069 z m -36.32558,-6.25581 q 2.72093,-0.7907 7.60465,-3.72093 l 0,7.4186 q -6.23256,4.11628 -16.39535,7.23256 l 0,-43.93023 8.7907,0 0,33 z m 11.72093,-31.25581 q 2.72093,6.04651 3.51162,12.69767 l -8.39534,0 q -0.39535,-6.25581 -2.74419,-12.69767 l 7.62791,0 z"
         style="font-style:normal;font-variant:normal;font-weight:normal;font-stretch:normal;font-size:50px;font-family:'嵐 - 墨夜体';-inkscape-font-specification:'嵐 - 墨夜体';text-align:center;text-anchor:middle;fill:#ffffff;fill-opacity:1"
         id="path4151"
         inkscape:connector-curvature="0" />
      <path
         d="m 359.52494,208.89006 0,-5.67441 9.18604,0 0,-3.32559 8.7907,0 0,3.32559 9.74419,0 0,5.67441 -9.74419,0 0,5.25582 12.09302,0 0,6.25581 -32.4186,0 0,-5.65116 q -0.97674,3.11628 -2.53488,5.65116 l 0,26.55814 -8.20931,0 0,-20.30232 q -1.95349,0.97674 -4.30232,1.55814 l 0,-5.06977 q 5.27907,-3.13954 7.44186,-10.16279 l 8.18604,0 q 0,0.18604 -0.18604,0.58139 0,0.39535 -0.2093,0.5814 l 11.34883,0 0,-5.25582 -9.18604,0 z m 24.2093,12.88373 0,2.93023 5.27907,0 0,5.65116 -5.27907,0 0,9.18605 q -0.18605,6.65116 -6.62791,6.83721 l -7.04651,0 0,-5.27907 2.93023,0 q 2.55814,0.2093 2.34884,-2.53489 l 0,-8.2093 -17.76744,0 0,-5.65116 17.76744,0 0,-2.93023 8.39535,0 z m -41.39535,-6.83721 0,-4.69768 q 4.88372,-2.93023 7.23256,-10.34884 l 8.76744,0 q -3.51163,12.11628 -16,15.04652 z m 24.4186,17.18604 q 1.95349,4.09303 2.53489,8.39535 l -7.62791,0 q -0.39535,-3.11628 -2.13953,-8.39535 l 7.23255,0 z"
         style="font-style:normal;font-variant:normal;font-weight:normal;font-stretch:normal;font-size:50px;font-family:'嵐 - 墨夜体';-inkscape-font-specification:'嵐 - 墨夜体';text-align:center;text-anchor:middle;fill:#ffffff;fill-opacity:1"
         id="path4153"
         inkscape:connector-curvature="0" />
    </g>
  </g>
</svg>
